<?xml version="1.0" encoding="UTF-8" standalone="no"?>
<!-- Generator: Adobe Illustrator 15.0.2, SVG Export Plug-In . SVG Version: 6.00 Build 0)  -->

<svg
   version="1.1"
   id="Layer1"
   sodipodi:docname="move-z+.svg"
   inkscape:version="1.1 (c68e22c387, 2021-05-23)"
   x="0px"
   y="0px"
   width="60.137px"
   height="60.777px"
   viewBox="0 0 60.137 60.777"
   enable-background="new 0 0 60.137 60.777"
   xml:space="preserve"
   xmlns:inkscape="http://www.inkscape.org/namespaces/inkscape"
   xmlns:sodipodi="http://sodipodi.sourceforge.net/DTD/sodipodi-0.dtd"
   xmlns="http://www.w3.org/2000/svg"
   xmlns:svg="http://www.w3.org/2000/svg"><defs
   id="defs30" /><sodipodi:namedview
   id="namedview28"
   pagecolor="#ffffff"
   bordercolor="#666666"
   borderopacity="1.0"
   inkscape:pageshadow="2"
   inkscape:pageopacity="0"
   inkscape:pagecheckerboard="0"
   showgrid="false"
   inkscape:zoom="4.9388227"
   inkscape:cx="30.067895"
   inkscape:cy="30.270372"
   inkscape:window-width="1858"
   inkscape:window-height="1057"
   inkscape:window-x="54"
   inkscape:window-y="-8"
   inkscape:window-maximized="1"
   inkscape:current-layer="Layer1" />



<rect
   id="bed"
   x="3.6641049"
   y="54.375858"
   fill="none"
   stroke="#ffffff"
   stroke-width="3.12821"
   stroke-linecap="round"
   stroke-linejoin="round"
   width="34.860138"
   height="4.2518415" /><path
   id="line22"
   style="fill:none;stroke:#ffffff;stroke-width:1.744;stroke-linecap:round;stroke-linejoin:round;stroke-miterlimit:10;stroke-dasharray:none"
   d="m 18.100099,23.501 h -4.246 m 11.579,-13.124 h -10.228 c -0.734,0 -1.353,0.617 -1.353,1.351 v 11.773 m 10.777,6.89 -1.628,1.987 h -2.2 l -3.474,-4.245 h 5.404 m -0.385,-2.317 h -9.65 c -0.618,0 -1.158,-0.54 -1.158,-1.155 0,-0.617 0.54,-1.158 1.158,-1.158 h 4.245 m 13.018,-0.002 h -4.247 m -3.889,-14.28 c 0,0 0,-0.541 0,-1.16 0,-0.616 0.693,-1.157 1.544,-1.157 h 2.7 c 0.851,0 1.546,-0.694 1.546,-1.544 V 2.272 m 2.346,21.229 V 11.728 c 0,-0.733 -0.619,-1.351 -1.353,-1.351 h -10.228 m 2.703,17.756 h 5.404 l -3.474,4.245 h -2.2 l -1.665,-2.028 m 7.724,-6.849 h 4.247 c 0.616,0 1.158,0.541 1.158,1.158 0,0.615 -0.542,1.155 -1.158,1.155 h -9.65" /><path
   id="path1350"
   style="fill:#ffffff;fill-opacity:1;stroke:none;stroke-width:0.161859;stroke-linejoin:round;stroke-miterlimit:4;stroke-dasharray:none;stroke-opacity:1;stop-color:#000000"
   d="m 49.236328,41.039266 -3.515625,3.779296 -3.517578,3.779297 0.894531,0.955079 0.892578,0.955078 1.337891,-1.458985 c 1.530725,-1.671089 1.857444,-1.924664 2.226563,-1.726562 0.134956,0.07243 0.293585,0.218351 0.353515,0.326172 0.07383,0.132842 0.120251,2.576619 0.144531,7.578125 0.0027,0.557814 0.0036,0.814231 0.0059,1.291015 h 2.527344 c -0.03773,-4.253701 -0.01311,-9.146845 0.107421,-9.300781 0.335598,-0.428603 0.603776,-0.2491 2.296875,1.542969 l 1.625,1.720703 0.91211,-0.97461 0.910156,-0.974609 -3.599609,-3.746094 z" /><path
   id="path1126"
   style="fill:#ffffff;fill-opacity:1;stroke:none;stroke-width:0.161859;stroke-linejoin:round;stroke-miterlimit:4;stroke-dasharray:none;stroke-opacity:1;stop-color:#000000"
   d="m 49.404337,38.800781 3.515625,-3.779296 3.517578,-3.779297 -0.894531,-0.955079 -0.892578,-0.955078 -1.337891,1.458985 c -1.530725,1.671089 -1.857444,1.924664 -2.226563,1.726562 -0.134956,-0.07243 -0.293585,-0.218351 -0.353515,-0.326172 -0.07383,-0.132842 -0.120251,-2.576619 -0.144531,-7.578125 -0.0027,-0.557814 -0.0036,-0.814231 -0.0059,-1.291015 h -2.527344 c 0.03773,4.253701 0.01311,9.146845 -0.107421,9.300781 -0.335598,0.428603 -0.603776,0.2491 -2.296875,-1.542969 l -1.625,-1.720703 -0.91211,0.97461 -0.910156,0.974609 3.599609,3.746094 z" /></svg>
