<?xml version="1.0" encoding="UTF-8" standalone="no"?>
<!-- Generator: Adobe Illustrator 15.0.2, SVG Export Plug-In . SVG Version: 6.00 Build 0)  -->

<svg
   version="1.1"
   id="Layer1"
   sodipodi:docname="move-z-.svg"
   inkscape:version="1.1 (c68e22c387, 2021-05-23)"
   x="0px"
   y="0px"
   width="60.137px"
   height="60.777px"
   viewBox="0 0 60.137 60.777"
   enable-background="new 0 0 60.137 60.777"
   xml:space="preserve"
   xmlns:inkscape="http://www.inkscape.org/namespaces/inkscape"
   xmlns:sodipodi="http://sodipodi.sourceforge.net/DTD/sodipodi-0.dtd"
   xmlns="http://www.w3.org/2000/svg"
   xmlns:svg="http://www.w3.org/2000/svg"><defs
   id="defs30">
	
	

		
		
			
		
		
			
	
		
		
			
		
		
		
			
	
			
		</defs><sodipodi:namedview
   id="namedview28"
   pagecolor="#ffffff"
   bordercolor="#666666"
   borderopacity="1.0"
   inkscape:pageshadow="2"
   inkscape:pageopacity="0"
   inkscape:pagecheckerboard="false"
   showgrid="false"
   inkscape:zoom="4.9388227"
   inkscape:cx="28.650553"
   inkscape:cy="30.270372"
   inkscape:window-width="1858"
   inkscape:window-height="1057"
   inkscape:window-x="54"
   inkscape:window-y="-8"
   inkscape:window-maximized="1"
   inkscape:current-layer="Layer1" />
<rect
   id="bed"
   x="3.6901076"
   y="54.418358"
   fill="none"
   stroke="#ffffff"
   stroke-width="3.12821"
   stroke-linecap="round"
   stroke-linejoin="round"
   width="34.860138"
   height="4.2518415" />
<path
   id="line22"
   style="fill:none;stroke:#ffffff;stroke-width:1.744;stroke-linecap:round;stroke-linejoin:round;stroke-miterlimit:10;stroke-dasharray:none"
   d="m 18.1261,23.5435 h -4.246 m 11.579,-13.124 h -10.228 c -0.734,0 -1.353,0.617 -1.353,1.351 v 11.773 m 10.777,6.89 -1.628,1.987 h -2.2 l -3.474,-4.245 h 5.404 m -0.385,-2.317 h -9.65 c -0.618,0 -1.158,-0.54 -1.158,-1.155 0,-0.617 0.54,-1.158 1.158,-1.158 h 4.245 m 13.018,-0.002 h -4.247 m -3.889,-14.28 c 0,0 0,-0.541 0,-1.16 0,-0.616 0.693,-1.157 1.544,-1.157 h 2.7 c 0.851,0 1.546,-0.694 1.546,-1.544 v -3.088 m 2.346,21.229 v -11.773 c 0,-0.733 -0.619,-1.351 -1.353,-1.351 h -10.228 m 2.703,17.756 h 5.404 l -3.474,4.245 h -2.2 l -1.665,-2.028 m 7.724,-6.849 h 4.247 c 0.616,0 1.158,0.541 1.158,1.158 0,0.615 -0.542,1.155 -1.158,1.155 h -9.65" />

<path
   style="fill:#ffffff;fill-opacity:1;stroke:none;stroke-width:0.161859;stroke-linejoin:round;stroke-miterlimit:4;stroke-dasharray:none;stroke-opacity:1;stop-color:#000000"
   d="m 45.774653,47.684404 -3.574909,-3.734143 0.885634,-0.943065 0.885633,-0.943067 1.651156,1.659693 c 1.029325,1.034645 1.729625,1.659692 1.859516,1.659692 0.114598,0 0.304059,-0.101433 0.421025,-0.225406 0.212514,-0.225248 0.212638,-0.230597 0.176834,-7.606225 -0.02428,-5.001506 -0.07096,-7.444016 -0.144793,-7.576858 -0.05993,-0.107821 -0.219382,-0.255299 -0.354339,-0.327729 -0.369118,-0.198102 -0.696446,0.05568 -2.227171,1.726769 l -1.337019,1.45962 -0.893366,-0.955031 -0.893366,-0.955032 3.51637,-3.779047 3.516369,-3.779048 3.600807,3.745898 3.600808,3.745898 -0.911262,0.974377 -0.911262,0.974377 -1.625637,-1.720664 c -1.693099,-1.792069 -1.960042,-1.971479 -2.29564,-1.542876 -0.211066,0.269559 -0.139448,15.136529 0.07463,15.491574 0.3181,0.527574 0.585003,0.36015 2.271711,-1.424998 l 1.574973,-1.666891 0.910095,0.969113 0.910095,0.969116 -3.555989,3.769048 -3.55599,3.769049 z"
   id="path1350" /></svg>
